# xmcd
#
# Track frame offsets:
#	150
#	10712
#	22110
#	37747
#	59332
#	69910
#	93860
#	104592
#	120735
#	140517
#	155845
#	166345
#	181622
#
# Disc length: 2506 seconds
#
# Revision: 0
# Processed by: cddbd v1.5.2PL0 Copyright (c) Steve Scherf et al.
# Submitted via: dBpowerAMP V4.0
#
DISCID=a109c80d
DTITLE=Flying J Wranglers - The Last Cattle Drive
DYEAR=1900
DGENRE=Country
TTITLE0=Yippee Yea
TTITLE1=Tumbling Tumbleweed
TTITLE2=Rocking Over
TTITLE3=Man Walks Among Us
TTITLE4=Cherokee Maiden
TTITLE5=The Last Cattle Drive
TTITLE6=Pecos Bill
TTITLE7=Hired Hand
TTITLE8=Marty Robbins Medley
TTITLE9=Four Strong Winds
TTITLE10=Wide Rolling Plains
TTITLE11=The Cowboy Song
TTITLE12=The Last CAttle Drive Reprise
EXTD=
EXTT0=
EXTT1=
EXTT2=
EXTT3=
EXTT4=
EXTT5=
EXTT6=
EXTT7=
EXTT8=
EXTT9=
EXTT10=
EXTT11=
EXTT12=
PLAYORDER=
